<svg xmlns="http://www.w3.org/2000/svg" enable-background="new 0 0 25 25" viewBox="0 0 25 25" id="css-alt"><path fill="#DE002A" d="M12.5,20c-0.114,0-0.228-0.026-0.332-0.078l-4.126-2.038c-0.226-0.111-0.381-0.329-0.412-0.578l-0.375-2.962c-0.027-0.214,0.039-0.429,0.182-0.59C7.579,13.593,7.783,13.5,7.999,13.5h2.484c0.361,0,0.672,0.258,0.737,0.613l0.215,1.156l1.132,0.64l1.481-0.671L14.347,13H7.75c-0.367,0-0.681-0.266-0.74-0.628l-0.329-2c-0.055-0.335,0.122-0.666,0.432-0.805L9.479,8.5H6.675c-0.34,0-0.638-0.229-0.725-0.558l-0.664-2.5c-0.06-0.225-0.012-0.465,0.13-0.649C5.559,4.608,5.778,4.5,6.011,4.5h12.979c0.225,0,0.438,0.101,0.58,0.274c0.143,0.173,0.199,0.401,0.155,0.622l-0.497,2.5c-0.047,0.237-0.206,0.437-0.426,0.537L16.444,9.5h1.493c0.217,0,0.423,0.094,0.565,0.258c0.143,0.164,0.207,0.381,0.178,0.596l-0.973,6.987c-0.036,0.255-0.2,0.474-0.435,0.58l-4.465,2.013C12.71,19.978,12.605,20,12.5,20z M9.067,16.718l3.447,1.703l3.765-1.697L17.076,11h-4.108c-0.354,0-0.658-0.247-0.733-0.592c-0.074-0.345,0.103-0.696,0.424-0.841l5.174-2.341L18.075,6H6.986l0.266,1h5.716c0.354,0,0.659,0.247,0.733,0.592s-0.103,0.696-0.425,0.841l-5.021,2.263L8.387,11.5h6.816c0.216,0,0.422,0.093,0.564,0.256s0.207,0.379,0.179,0.593l-0.466,3.5c-0.034,0.256-0.198,0.477-0.434,0.584l-2.208,1c-0.219,0.099-0.47,0.087-0.679-0.03l-1.768-1c-0.193-0.109-0.328-0.298-0.368-0.516L9.859,15H8.85L9.067,16.718z"></path><path fill="#583689" d="M12.5,25c-0.119,0-0.238-0.021-0.352-0.063l-8-3c-0.356-0.134-0.605-0.458-0.644-0.837l-2-20C1.477,0.818,1.569,0.539,1.759,0.329S2.218,0,2.5,0h20c0.282,0,0.552,0.12,0.741,0.329s0.282,0.489,0.254,0.771l-2,20c-0.038,0.378-0.287,0.703-0.644,0.837l-8,3C12.738,24.979,12.619,25,12.5,25z M5.434,20.282l7.066,2.65l7.066-2.65L21.395,2H3.605L5.434,20.282z"></path></svg>