<svg xmlns="http://www.w3.org/2000/svg" enable-background="new 0 0 25 25" viewBox="0 0 25 25" id="visual-studio-code"><path fill="#583689" d="M18.25,25c-0.098,0-0.197-0.015-0.292-0.044l-17.25-5.271C0.287,19.558,0,19.169,0,18.729v-0.538c0-0.28,0.118-0.547,0.324-0.736s0.485-0.284,0.762-0.26l16.165,1.387V1c0-0.334,0.167-0.646,0.445-0.832c0.277-0.187,0.63-0.221,0.939-0.091l5.75,2.396C24.757,2.628,25,2.992,25,3.396v18.209c0,0.403-0.243,0.768-0.615,0.923l-5.75,2.396C18.512,24.975,18.381,25,18.25,25z M7.878,19.785l10.32,3.153L23,20.938V4.062L19.25,2.5v17.172c0,0.28-0.118,0.547-0.324,0.736s-0.485,0.288-0.762,0.26L7.878,19.785z"></path><path fill="#DE002A" d="M12.75,17.542c-0.184,0-0.366-0.067-0.507-0.198l-5.431-4.991L4.02,14.457c-0.242,0.184-0.568,0.202-0.83,0.049l-1.36-0.794c-0.206-0.12-0.342-0.33-0.368-0.567c-0.025-0.236,0.063-0.471,0.238-0.632l2.643-2.43l-2.643-2.43C1.525,7.492,1.437,7.258,1.463,7.021c0.025-0.236,0.162-0.447,0.368-0.567L3.19,5.661c0.26-0.15,0.588-0.133,0.829,0.05l2.793,2.104l5.431-4.991c0.227-0.21,0.557-0.257,0.835-0.123l2.875,1.396c0.258,0.126,0.422,0.388,0.422,0.675v10.626c0,0.287-0.164,0.549-0.422,0.675l-2.875,1.396C12.973,17.518,12.861,17.542,12.75,17.542z M6.859,10.627c0.183,0,0.365,0.066,0.508,0.198l5.515,5.069l1.993-0.968V5.24l-1.993-0.968L7.367,9.341C7.1,9.587,6.697,9.606,6.408,9.388L3.514,7.209L3.465,7.237l2.495,2.294c0.155,0.142,0.243,0.342,0.243,0.552s-0.088,0.41-0.243,0.552l-2.496,2.294l0.052,0.03l2.892-2.181C6.542,10.677,6.701,10.627,6.859,10.627z M12.75,13.979c-0.16,0-0.319-0.051-0.452-0.151l-4.174-3.146c-0.188-0.142-0.298-0.363-0.298-0.599s0.111-0.457,0.299-0.599l4.174-3.146c0.228-0.173,0.532-0.199,0.786-0.072C13.339,6.394,13.5,6.653,13.5,6.938v6.292c0,0.284-0.161,0.544-0.416,0.671C12.979,13.953,12.864,13.979,12.75,13.979z M9.822,10.083L12,11.725V8.441L9.822,10.083z"></path></svg>